<?xml version="1.0" encoding="UTF-8" standalone="no"?>
<svg
   xmlns="http://www.w3.org/2000/svg"
   id="svg3818"
   version="1.1"
   viewBox="0 0 32 32"
   height="32"
   width="32">
  <defs
     id="defs3822" />
  <g
     style="fill:none;fill-rule:evenodd"
     transform="matrix(2,0,0,2,-1,-1)"
     id="g3816">
    <polygon
       style="fill:#40b6e0;fill-opacity:0.7"
       id="polygon3804"
       points="16,9 1,9 1,16 16,16 " />
    <polygon
       style="fill:#9aa7b0;fill-opacity:0.8"
       id="polygon3806"
       points="7,5 7,1 3,5 " />
    <polygon
       style="fill:#9aa7b0;fill-opacity:0.8"
       id="polygon3808"
       points="3,6 3,8 13,8 13,1 8,1 8,6 " />
    <path
       style="fill:#231f20;fill-opacity:0.7"
       id="path3810"
       transform="translate(6,10)"
       d="M 0.97276797,1.5015259 C 0.97276797,1.1330566 1.284,1 1.845,1 1.8503333,1 2.2353333,1 3,1 V 0 C 2.2626667,0 1.8826667,0 1.86,0 0.778,0 0,0.45916748 0,1.45 0,2.3145264 0.41955566,2.6904907 1.4712524,2.9160767 2.2415887,3.0813116 2.496155,3.2286294 2.496155,3.548 2.496155,3.8673706 2.1384277,4 1.4712524,4 1.4605858,4 1.0701683,4 0.3,4 V 5 C 1.0755016,5 1.4659191,5 1.4712524,5 3.5,5 3.5,4 3.5,3.548 3.5,2.9160767 3.0202637,2.4207153 2.1586914,2.1468506 1.2971191,1.8729858 0.97276797,1.8699951 0.97276797,1.5015259 Z" />
    <polygon
       style="fill:#231f20;fill-opacity:0.7"
       id="polygon3812"
       transform="translate(10,10)"
       points="2.5,2 3.979,0 5,0 5,5 4,5 4,1.7 2.5,3.5 1,1.7 1,5 0,5 0,0 0.936,0 " />
    <path
       style="fill:#231f20;fill-opacity:0.7"
       id="path3814"
       transform="translate(1,10)"
       d="M 3.15,3 2.4961212,1.4 1.85,3 Z M 2.109,0 H 2.89 L 5,5 H 3.9 L 3.4,4 H 1.6 L 1.1,5 H 0 Z" />
  </g>
</svg>
